<svg width="42" height="42" viewBox="0 0 42 42" fill="none" xmlns="http://www.w3.org/2000/svg">
<path d="M19.2137 0.892098C19.2542 0.230035 20.2084 0.175478 20.3241 0.828612L21.2941 6.30784C22.5466 13.383 28.484 18.6782 35.6558 19.1162L41.2099 19.4554C41.872 19.4958 41.9266 20.4501 41.2734 20.5658L35.7941 21.5357C28.719 22.7882 23.4238 28.7257 22.9859 35.8974L22.6467 41.4515C22.6062 42.1137 21.652 42.1682 21.5363 41.515L20.5663 36.0358C19.3138 28.9607 13.3764 23.6654 6.20454 23.2275L0.650462 22.8883C-0.0116018 22.8478 -0.0661583 21.8936 0.586975 21.7779L6.06621 20.8079C13.1414 19.5554 18.4366 13.618 18.8745 6.44618L19.2137 0.892098Z" fill="white"/>
</svg>
